<svg width="24" height="24" viewBox="0 0 24 24" fill="currentColor" xmlns="http://www.w3.org/2000/svg">
<path d="M7.29167 14.3751L5.54167 12.5834C6.36111 11.764 7.32306 11.1148 8.4275 10.6359C9.53139 10.1565 10.7222 9.91675 12 9.91675C13.2778 9.91675 14.4689 10.1598 15.5733 10.6459C16.6772 11.132 17.6389 11.7917 18.4583 12.6251L16.7083 14.3751C16.0972 13.764 15.3889 13.2848 14.5833 12.9376C13.7778 12.5904 12.9167 12.4167 12 12.4167C11.0833 12.4167 10.2222 12.5904 9.41667 12.9376C8.61111 13.2848 7.90278 13.764 7.29167 14.3751ZM3.75 10.8334L2 9.08342C3.27778 7.77786 4.77083 6.75703 6.47917 6.02091C8.1875 5.2848 10.0278 4.91675 12 4.91675C13.9722 4.91675 15.8125 5.2848 17.5208 6.02091C19.2292 6.75703 20.7222 7.77786 22 9.08342L20.25 10.8334C19.1806 9.76397 17.9411 8.92703 16.5317 8.32258C15.1217 7.71869 13.6111 7.41675 12 7.41675C10.3889 7.41675 8.87833 7.71869 7.46833 8.32258C6.05889 8.92703 4.81944 9.76397 3.75 10.8334ZM12 19.0834L14.9375 16.1251C14.5625 15.7501 14.125 15.4548 13.625 15.2392C13.125 15.0242 12.5833 14.9167 12 14.9167C11.4167 14.9167 10.875 15.0242 10.375 15.2392C9.875 15.4548 9.4375 15.7501 9.0625 16.1251L12 19.0834Z" fill="black"/>
</svg>
